<svg xmlns="http://www.w3.org/2000/svg" viewBox="0 0 24 24"><path d="M 15.429688 12 C 15.429688 11.054688 15.09375 10.246094 14.425781 9.574219 C 13.753906 8.90625 12.945312 8.570312 12 8.570312 C 11.054688 8.570312 10.246094 8.90625 9.574219 9.574219 C 8.90625 10.246094 8.570312 11.054688 8.570312 12 C 8.570312 12.945312 8.90625 13.753906 9.574219 14.425781 C 10.246094 15.09375 11.054688 15.429688 12 15.429688 C 12.945312 15.429688 13.753906 15.09375 14.425781 14.425781 C 15.09375 13.753906 15.429688 12.945312 15.429688 12 Z M 17.277344 12 C 17.277344 13.464844 16.761719 14.710938 15.738281 15.738281 C 14.710938 16.761719 13.464844 17.277344 12 17.277344 C 10.535156 17.277344 9.289062 16.761719 8.261719 15.738281 C 7.238281 14.710938 6.722656 13.464844 6.722656 12 C 6.722656 10.535156 7.238281 9.289062 8.261719 8.261719 C 9.289062 7.238281 10.535156 6.722656 12 6.722656 C 13.464844 6.722656 14.710938 7.238281 15.738281 8.261719 C 16.761719 9.289062 17.277344 10.535156 17.277344 12 Z M 18.722656 6.507812 C 18.722656 6.847656 18.601562 7.136719 18.363281 7.378906 C 18.121094 7.621094 17.832031 7.742188 17.492188 7.742188 C 17.152344 7.742188 16.863281 7.621094 16.621094 7.378906 C 16.378906 7.136719 16.257812 6.847656 16.257812 6.507812 C 16.257812 6.167969 16.378906 5.878906 16.621094 5.636719 C 16.863281 5.398438 17.152344 5.277344 17.492188 5.277344 C 17.832031 5.277344 18.121094 5.398438 18.363281 5.636719 C 18.601562 5.878906 18.722656 6.167969 18.722656 6.507812 Z M 12 3.5625 C 11.9375 3.5625 11.597656 3.558594 10.976562 3.554688 C 10.355469 3.550781 9.882812 3.550781 9.5625 3.554688 C 9.242188 3.558594 8.808594 3.574219 8.269531 3.597656 C 7.730469 3.617188 7.269531 3.664062 6.890625 3.730469 C 6.511719 3.796875 6.191406 3.878906 5.933594 3.976562 C 5.488281 4.15625 5.09375 4.414062 4.753906 4.753906 C 4.414062 5.09375 4.15625 5.488281 3.976562 5.933594 C 3.878906 6.191406 3.796875 6.511719 3.730469 6.890625 C 3.664062 7.269531 3.617188 7.730469 3.597656 8.269531 C 3.574219 8.808594 3.558594 9.242188 3.554688 9.5625 C 3.550781 9.882812 3.550781 10.355469 3.554688 10.976562 C 3.558594 11.597656 3.5625 11.9375 3.5625 12 C 3.5625 12.0625 3.558594 12.402344 3.554688 13.023438 C 3.550781 13.644531 3.550781 14.117188 3.554688 14.4375 C 3.558594 14.757812 3.574219 15.191406 3.597656 15.730469 C 3.617188 16.269531 3.664062 16.730469 3.730469 17.109375 C 3.796875 17.488281 3.878906 17.808594 3.976562 18.066406 C 4.15625 18.511719 4.414062 18.90625 4.753906 19.246094 C 5.09375 19.585938 5.488281 19.84375 5.933594 20.023438 C 6.191406 20.121094 6.511719 20.203125 6.890625 20.269531 C 7.269531 20.335938 7.730469 20.382812 8.269531 20.402344 C 8.808594 20.425781 9.242188 20.441406 9.5625 20.445312 C 9.882812 20.449219 10.355469 20.449219 10.976562 20.445312 C 11.597656 20.441406 11.9375 20.4375 12 20.4375 C 12.0625 20.4375 12.402344 20.441406 13.023438 20.445312 C 13.644531 20.449219 14.117188 20.449219 14.4375 20.445312 C 14.757812 20.441406 15.191406 20.425781 15.730469 20.402344 C 16.269531 20.382812 16.730469 20.335938 17.109375 20.269531 C 17.488281 20.203125 17.808594 20.121094 18.066406 20.023438 C 18.511719 19.84375 18.90625 19.585938 19.246094 19.246094 C 19.585938 18.90625 19.84375 18.511719 20.023438 18.066406 C 20.121094 17.808594 20.203125 17.488281 20.269531 17.109375 C 20.335938 16.730469 20.382812 16.269531 20.402344 15.730469 C 20.425781 15.191406 20.441406 14.757812 20.445312 14.4375 C 20.449219 14.117188 20.449219 13.644531 20.445312 13.023438 C 20.441406 12.402344 20.4375 12.0625 20.4375 12 C 20.4375 11.9375 20.441406 11.597656 20.445312 10.976562 C 20.449219 10.355469 20.449219 9.882812 20.445312 9.5625 C 20.441406 9.242188 20.425781 8.808594 20.402344 8.269531 C 20.382812 7.730469 20.335938 7.269531 20.269531 6.890625 C 20.203125 6.511719 20.121094 6.191406 20.023438 5.933594 C 19.84375 5.488281 19.585938 5.09375 19.246094 4.753906 C 18.90625 4.414062 18.511719 4.15625 18.066406 3.976562 C 17.808594 3.878906 17.488281 3.796875 17.109375 3.730469 C 16.730469 3.664062 16.269531 3.617188 15.730469 3.597656 C 15.191406 3.574219 14.757812 3.558594 14.4375 3.554688 C 14.117188 3.550781 13.644531 3.550781 13.023438 3.554688 C 12.402344 3.558594 12.0625 3.5625 12 3.5625 Z M 22.285156 12 C 22.285156 14.042969 22.261719 15.460938 22.21875 16.246094 C 22.128906 18.101562 21.574219 19.539062 20.558594 20.558594 C 19.539062 21.574219 18.101562 22.128906 16.246094 22.21875 C 15.460938 22.261719 14.042969 22.285156 12 22.285156 C 9.957031 22.285156 8.539062 22.261719 7.753906 22.21875 C 5.898438 22.128906 4.460938 21.574219 3.441406 20.558594 C 2.425781 19.539062 1.871094 18.101562 1.78125 16.246094 C 1.738281 15.460938 1.714844 14.042969 1.714844 12 C 1.714844 9.957031 1.738281 8.539062 1.78125 7.753906 C 1.871094 5.898438 2.425781 4.460938 3.441406 3.441406 C 4.460938 2.425781 5.898438 1.871094 7.753906 1.78125 C 8.539062 1.738281 9.957031 1.714844 12 1.714844 C 14.042969 1.714844 15.460938 1.738281 16.246094 1.78125 C 18.101562 1.871094 19.539062 2.425781 20.558594 3.441406 C 21.574219 4.460938 22.128906 5.898438 22.21875 7.753906 C 22.261719 8.539062 22.285156 9.957031 22.285156 12 Z M 22.285156 12 "></path></svg>