<svg viewBox="0 0 24 24" xmlns="http://www.w3.org/2000/svg" fill="rgb(194,194,194)"><path d="M12 .05a8.75 8.75 0 0 1 8.75 8.75c0 3.691-1.564 7.288-4.156 10.657a29.024 29.024 0 0 1-3.54 3.825l-.315.277-.27.227a.75.75 0 0 1-.938 0l-.048-.04-.537-.464a29.024 29.024 0 0 1-3.54-3.825C4.814 16.087 3.25 12.491 3.25 8.8A8.75 8.75 0 0 1 12 .05zm0 1.5A7.25 7.25 0 0 0 4.75 8.8c0 3.309 1.436 6.612 3.844 9.743a27.537 27.537 0 0 0 2.677 2.993l.31.295.15.138.269.242.197-.175.297-.276.235-.224a27.537 27.537 0 0 0 2.677-2.993c2.408-3.13 3.844-6.434 3.844-9.743A7.25 7.25 0 0 0 12 1.55zm0 3.3a2.75 2.75 0 1 1 0 5.5 2.75 2.75 0 0 1 0-5.5zm0 1.5a1.25 1.25 0 1 0 0 2.5 1.25 1.25 0 0 0 0-2.5z"></path></svg>