<svg viewBox="0 0 24 24" xmlns="http://www.w3.org/2000/svg" fill="rgb(255, 255, 255)"><path d="M12 12.917c5.523 0 10 4.203 10 9.388 0 .384-.331.695-.74.695s-.74-.311-.74-.695c0-4.418-3.814-7.999-8.52-7.999-4.706 0-8.52 3.581-8.52 8 0 .383-.331.694-.74.694S2 22.689 2 22.305c0-5.185 4.477-9.388 10-9.388zM11.671 1a5.122 5.122 0 0 1 5.126 5.117 5.122 5.122 0 0 1-5.126 5.117 5.122 5.122 0 0 1-5.126-5.117A5.122 5.122 0 0 1 11.671 1zm0 1.41a3.71 3.71 0 0 0-3.713 3.707 3.71 3.71 0 0 0 3.713 3.707 3.71 3.71 0 0 0 3.714-3.707A3.71 3.71 0 0 0 11.67 2.41z"></path></svg>