<svg xmlns="http://www.w3.org/2000/svg" viewBox="0 0 24 24"><path d="M 22.554688 5.464844 C 21.957031 6.339844 21.230469 7.085938 20.382812 7.699219 C 20.394531 7.824219 20.398438 8.011719 20.398438 8.261719 C 20.398438 9.425781 20.226562 10.582031 19.886719 11.738281 C 19.550781 12.894531 19.035156 14.003906 18.339844 15.066406 C 17.648438 16.128906 16.824219 17.070312 15.871094 17.886719 C 14.914062 18.703125 13.761719 19.355469 12.414062 19.839844 C 11.066406 20.328125 9.625 20.570312 8.089844 20.570312 C 5.667969 20.570312 3.457031 19.925781 1.445312 18.628906 C 1.757812 18.664062 2.105469 18.683594 2.492188 18.683594 C 4.5 18.683594 6.289062 18.066406 7.863281 16.835938 C 6.925781 16.816406 6.085938 16.527344 5.34375 15.972656 C 4.601562 15.414062 4.09375 14.699219 3.816406 13.835938 C 4.113281 13.878906 4.382812 13.902344 4.632812 13.902344 C 5.019531 13.902344 5.398438 13.851562 5.773438 13.753906 C 4.773438 13.550781 3.945312 13.050781 3.289062 12.261719 C 2.632812 11.472656 2.304688 10.554688 2.304688 9.507812 L 2.304688 9.457031 C 2.910156 9.792969 3.5625 9.976562 4.257812 10.003906 C 3.667969 9.613281 3.199219 9.097656 2.851562 8.464844 C 2.503906 7.832031 2.332031 7.144531 2.332031 6.402344 C 2.332031 5.617188 2.527344 4.886719 2.917969 4.21875 C 4 5.550781 5.316406 6.613281 6.863281 7.414062 C 8.414062 8.210938 10.070312 8.65625 11.839844 8.746094 C 11.769531 8.40625 11.730469 8.074219 11.730469 7.753906 C 11.730469 6.558594 12.152344 5.539062 12.996094 4.695312 C 13.839844 3.851562 14.863281 3.429688 16.058594 3.429688 C 17.308594 3.429688 18.363281 3.882812 19.21875 4.792969 C 20.191406 4.605469 21.105469 4.257812 21.964844 3.75 C 21.632812 4.777344 21 5.570312 20.0625 6.132812 C 20.894531 6.042969 21.722656 5.820312 22.554688 5.464844 Z M 22.554688 5.464844"></path></svg>